<mxfile host="app.diagrams.net" modified="2024-07-02T06:28:55.245Z" agent="Mozilla/5.0 (Windows NT 10.0; Win64; x64) AppleWebKit/537.36 (KHTML, like Gecko) Chrome/126.0.0.0 Safari/537.36" etag="uoJTDYGN7A2mjoeAMOxX" version="24.6.4" type="github">
  <diagram name="Page-1" id="iTSx6iQsOjYj2euL0-ux">
    <mxGraphModel dx="1434" dy="738" grid="1" gridSize="10" guides="1" tooltips="1" connect="1" arrows="1" fold="1" page="1" pageScale="1" pageWidth="850" pageHeight="1100" math="0" shadow="0">
      <root>
        <mxCell id="0" />
        <mxCell id="1" parent="0" />
        <mxCell id="5HVhRUDWJxrATJmEXJ-i-4" value="Start" style="rounded=0;whiteSpace=wrap;html=1;fillColor=#d5e8d4;strokeColor=#82b366;" vertex="1" connectable="0" parent="1">
          <mxGeometry x="40" y="40" width="80" height="40" as="geometry" />
        </mxCell>
        <mxCell id="5HVhRUDWJxrATJmEXJ-i-5" value="Retrieve data from SharePoint list" style="shape=process;whiteSpace=wrap;html=1;fillColor=#e1d5e7;strokeColor=#9673a6;" vertex="1" connectable="0" parent="1">
          <mxGeometry x="160" y="40" width="160" height="60" as="geometry" />
        </mxCell>
        <mxCell id="5HVhRUDWJxrATJmEXJ-i-6" value="Normalize data" style="shape=parallelogram;perimeter=parallelogramPerimeter;whiteSpace=wrap;html=1;fillColor=#f8cecc;strokeColor=#b85450;" vertex="1" connectable="0" parent="1">
          <mxGeometry x="180" y="140" width="120" height="60" as="geometry" />
        </mxCell>
        <mxCell id="5HVhRUDWJxrATJmEXJ-i-7" value="Compare with PostgreSQL database?" style="shape=rhombus;perimeter=rhombusPerimeter;whiteSpace=wrap;html=1;fillColor=#ffe6cc;strokeColor=#d79b00;" vertex="1" connectable="0" parent="1">
          <mxGeometry x="160" y="220" width="160" height="60" as="geometry" />
        </mxCell>
        <mxCell id="5HVhRUDWJxrATJmEXJ-i-8" value="Update rows with discrepancies" style="shape=process;whiteSpace=wrap;html=1;fillColor=#e1d5e7;strokeColor=#9673a6;" vertex="1" connectable="0" parent="1">
          <mxGeometry x="170" y="320" width="160" height="60" as="geometry" />
        </mxCell>
        <mxCell id="5HVhRUDWJxrATJmEXJ-i-9" value="Add new records" style="shape=process;whiteSpace=wrap;html=1;fillColor=#e1d5e7;strokeColor=#9673a6;" vertex="1" connectable="0" parent="1">
          <mxGeometry x="360" y="180" width="120" height="60" as="geometry" />
        </mxCell>
        <mxCell id="5HVhRUDWJxrATJmEXJ-i-10" value="End" style="rounded=0;whiteSpace=wrap;html=1;fillColor=#f8cecc;strokeColor=#b85450;" vertex="1" connectable="0" parent="1">
          <mxGeometry x="520" y="190" width="80" height="40" as="geometry" />
        </mxCell>
        <mxCell id="5HVhRUDWJxrATJmEXJ-i-11" style="edgeStyle=orthogonalEdgeStyle;rounded=0;orthogonalLoop=1;jettySize=auto;html=1;" edge="1" parent="1" source="5HVhRUDWJxrATJmEXJ-i-4" target="5HVhRUDWJxrATJmEXJ-i-5">
          <mxGeometry relative="1" as="geometry" />
        </mxCell>
        <mxCell id="5HVhRUDWJxrATJmEXJ-i-12" style="edgeStyle=orthogonalEdgeStyle;rounded=0;orthogonalLoop=1;jettySize=auto;html=1;" edge="1" parent="1" source="5HVhRUDWJxrATJmEXJ-i-5" target="5HVhRUDWJxrATJmEXJ-i-6">
          <mxGeometry relative="1" as="geometry" />
        </mxCell>
        <mxCell id="5HVhRUDWJxrATJmEXJ-i-13" style="edgeStyle=orthogonalEdgeStyle;rounded=0;orthogonalLoop=1;jettySize=auto;html=1;" edge="1" parent="1" source="5HVhRUDWJxrATJmEXJ-i-6" target="5HVhRUDWJxrATJmEXJ-i-7">
          <mxGeometry relative="1" as="geometry" />
        </mxCell>
        <mxCell id="5HVhRUDWJxrATJmEXJ-i-14" style="edgeStyle=orthogonalEdgeStyle;rounded=0;orthogonalLoop=1;jettySize=auto;html=1;" edge="1" parent="1" source="5HVhRUDWJxrATJmEXJ-i-7" target="5HVhRUDWJxrATJmEXJ-i-8">
          <mxGeometry relative="1" as="geometry" />
        </mxCell>
        <mxCell id="5HVhRUDWJxrATJmEXJ-i-15" style="edgeStyle=orthogonalEdgeStyle;rounded=0;orthogonalLoop=1;jettySize=auto;html=1;" edge="1" parent="1" source="5HVhRUDWJxrATJmEXJ-i-8" target="5HVhRUDWJxrATJmEXJ-i-9">
          <mxGeometry relative="1" as="geometry" />
        </mxCell>
        <mxCell id="5HVhRUDWJxrATJmEXJ-i-16" style="edgeStyle=orthogonalEdgeStyle;rounded=0;orthogonalLoop=1;jettySize=auto;html=1;" edge="1" parent="1" source="5HVhRUDWJxrATJmEXJ-i-9" target="5HVhRUDWJxrATJmEXJ-i-10">
          <mxGeometry relative="1" as="geometry" />
        </mxCell>
      </root>
    </mxGraphModel>
  </diagram>
</mxfile>
